<svg xmlns="http://www.w3.org/2000/svg" width="256" height="256" viewBox="0 0 256 256">
  <defs><linearGradient id="lu" gradientUnits="userSpaceOnUse" x1="104" y1="62" x2="52" y2="140"><stop offset="0" stop-color="#F27A14"/><stop offset="1" stop-color="#D9500C"/></linearGradient><linearGradient id="ll" gradientUnits="userSpaceOnUse" x1="52" y1="140" x2="104" y2="216"><stop offset="0" stop-color="#B5360A"/><stop offset="1" stop-color="#D04A0C"/></linearGradient><linearGradient id="ru" gradientUnits="userSpaceOnUse" x1="152" y1="62" x2="204" y2="140"><stop offset="0" stop-color="#FFD050"/><stop offset="1" stop-color="#FFA126"/></linearGradient><linearGradient id="rl" gradientUnits="userSpaceOnUse" x1="204" y1="140" x2="152" y2="216"><stop offset="0" stop-color="#F07012"/><stop offset="1" stop-color="#FF9A22"/></linearGradient><linearGradient id="cap" gradientUnits="userSpaceOnUse" x1="82" y1="0" x2="174" y2="0"><stop offset="0" stop-color="#E8640F"/><stop offset="1" stop-color="#FFB838"/></linearGradient><linearGradient id="base" gradientUnits="userSpaceOnUse" x1="76" y1="0" x2="180" y2="0"><stop offset="0" stop-color="#C2410C"/><stop offset="1" stop-color="#F58A1A"/></linearGradient><linearGradient id="ring" gradientUnits="userSpaceOnUse" x1="106" y1="0" x2="150" y2="0"><stop offset="0" stop-color="#D9480F"/><stop offset="1" stop-color="#FFA526"/></linearGradient><radialGradient id="flame" cx="128" cy="150" r="38" gradientUnits="userSpaceOnUse"><stop offset="0" stop-color="#FFFFFF"/><stop offset="0.4" stop-color="#FFF1BC"/><stop offset="0.8" stop-color="#FFC74A"/><stop offset="1" stop-color="#FF9A26"/></radialGradient><filter id="over" x="-30%" y="-60%" width="160%" height="220%"><feDropShadow dx="0" dy="3" stdDeviation="4" flood-color="#5A1600" flood-opacity="0.5"/></filter><filter id="crease" x="-40%" y="-40%" width="180%" height="180%"><feDropShadow dx="0" dy="2" stdDeviation="2.5" flood-color="#5A1600" flood-opacity="0.35"/></filter><filter id="glow" x="-80%" y="-80%" width="260%" height="260%"><feGaussianBlur stdDeviation="9"/></filter></defs>
  <ellipse cx="128" cy="148" rx="40" ry="46" fill="#FFB547" opacity="0.55" filter="url(#glow)"/><path d="M128 104 C144 122 155 137 155 154 a27 27 0 0 1 -54 0 C101 137 112 122 128 104 Z" fill="url(#flame)"/><path d="M104 56 a24 24 0 0 1 48 0" fill="none" stroke="url(#ring)" stroke-width="13" stroke-linecap="round"/><polygon points="33.9,140.1 91.6,224.5 116.4,207.5 70.1,139.9" fill="url(#ll)" /><polygon points="185.9,139.9 139.6,207.5 164.4,224.5 222.1,140.1" fill="url(#rl)" /><polygon points="91.5,53.7 33.9,140.1 70.1,139.9 116.5,70.3" fill="url(#lu)" filter="url(#crease)"/><polygon points="139.5,70.3 185.9,139.9 222.1,140.1 164.5,53.7" fill="url(#ru)" filter="url(#crease)"/><path d="M96 48 H160 L178 74 H78 Z" fill="url(#cap)" stroke="url(#cap)" stroke-width="6" stroke-linejoin="round" filter="url(#over)"/><path d="M98 50 H158 L166 61 H90 Z" fill="#FFFFFF" opacity="0.22"/><path d="M74 206 H182 L168 232 H88 Z" fill="url(#base)" stroke="url(#base)" stroke-width="6" stroke-linejoin="round" filter="url(#over)"/>
</svg>